<svg width="355" height="408" viewBox="0 0 355 408" fill="none" xmlns="http://www.w3.org/2000/svg">
<g filter="url(#filter0_d_80_38)">
<path d="M78.732 366.45C82.076 366.45 84.584 366.843 86.256 367.628C87.928 368.388 88.764 369.617 88.764 371.314C88.764 372.986 88.2447 374.265 87.206 375.152C86.1927 376.013 85.0273 376.444 83.71 376.444C82.3927 376.444 81.202 376.115 80.138 375.456C79.0993 374.772 78.3773 373.873 77.972 372.758C77.0347 372.758 76.1353 373.075 75.274 373.708C74.438 374.316 73.906 375.114 73.678 376.102C78.694 377.318 82.2913 378.737 84.47 380.358C86.6487 381.979 87.738 384.057 87.738 386.59C87.738 389.123 86.5853 391.15 84.28 392.67C82 394.19 78.9093 394.95 75.008 394.95C71.132 394.95 68.3833 394.418 66.762 393.354C65.1407 392.29 64.33 390.884 64.33 389.136C64.33 387.388 64.8747 385.779 65.964 384.31C66.496 385.45 67.5093 386.476 69.004 387.388C70.524 388.3 72.0187 388.756 73.488 388.756C76.1987 388.756 77.9213 387.895 78.656 386.172C74.4507 385.615 71.246 384.449 69.042 382.676C66.838 380.877 65.736 378.711 65.736 376.178C65.736 374.481 66.192 372.973 67.104 371.656C68.016 370.313 69.1813 369.287 70.6 368.578C73.3867 367.159 76.0973 366.45 78.732 366.45ZM95.4701 401.562C93.8994 401.562 92.7974 401.169 92.1641 400.384C91.5561 399.624 91.2521 398.509 91.2521 397.04C91.2521 395.596 91.5561 392.67 92.1641 388.262C92.7974 383.854 93.4054 380.092 93.9881 376.976L91.8601 373.936C93.4308 373.024 94.7861 372.34 95.9261 371.884C97.0661 371.403 98.1934 371.162 99.3081 371.162C101.132 371.162 102.044 372.365 102.044 374.772C102.044 375.101 101.993 375.773 101.892 376.786L102.272 376.976C103.007 375.152 104.071 373.733 105.464 372.72C106.857 371.681 108.491 371.162 110.366 371.162C112.266 371.162 113.773 372.023 114.888 373.746C116.003 375.443 116.56 377.559 116.56 380.092C116.56 383.487 115.369 386.577 112.988 389.364C111.823 390.732 110.265 391.847 108.314 392.708C106.363 393.544 104.185 393.962 101.778 393.962C101.043 393.962 100.081 393.899 98.8901 393.772C98.8141 394.659 98.7761 395.482 98.7761 396.242C98.7761 397.863 99.1688 399.016 99.9541 399.7C98.5354 400.941 97.0408 401.562 95.4701 401.562ZM100.448 385.83L99.5741 390.238C102.639 390.162 105.084 389.161 106.908 387.236C108.757 385.285 109.682 383.157 109.682 380.852C109.682 379.661 109.441 378.711 108.96 378.002C108.504 377.267 107.833 376.9 106.946 376.9C103.805 376.9 101.639 379.877 100.448 385.83ZM138.7 374.088C140.119 374.088 141.335 374.658 142.348 375.798C143.387 376.938 143.906 378.597 143.906 380.776C143.906 382.929 143.526 384.931 142.766 386.78C142.006 388.604 141.005 390.099 139.764 391.264C138.523 392.429 137.117 393.341 135.546 394C133.975 394.633 132.367 394.95 130.72 394.95C127.401 394.95 124.779 394.038 122.854 392.214C120.929 390.39 119.966 387.971 119.966 384.956C119.966 380.877 121.271 377.571 123.88 375.038C126.515 372.479 129.859 371.2 133.912 371.2C134.824 371.2 135.736 371.301 136.648 371.504C136.927 372.34 137.079 373.29 137.104 374.354C137.636 374.177 138.168 374.088 138.7 374.088ZM134.026 379.37C134.026 378.661 134.191 377.863 134.52 376.976C134.875 376.089 135.432 375.38 136.192 374.848C132.848 375.557 130.543 376.913 129.276 378.914C128.187 380.637 127.642 382.41 127.642 384.234C127.642 386.058 128.009 387.527 128.744 388.642C129.504 389.731 130.467 390.276 131.632 390.276C134.216 390.276 136.04 388.591 137.104 385.222C135.052 383.955 134.026 382.005 134.026 379.37ZM147.51 390.238C147.51 389.225 147.763 387.261 148.27 384.348C148.802 381.435 149.347 378.775 149.904 376.368L147.928 373.328C151.095 371.909 153.311 371.2 154.578 371.2C155.87 371.2 156.516 372.011 156.516 373.632C156.516 374.519 156.098 376.368 155.262 379.18L155.642 379.37C157.466 373.923 159.733 371.2 162.444 371.2C163.685 371.2 164.635 371.58 165.294 372.34C165.953 373.1 166.282 373.949 166.282 374.886C166.282 376.279 165.763 377.47 164.724 378.458C163.685 379.446 162.127 379.94 160.05 379.94C156.909 379.94 155.338 383.17 155.338 389.63C155.338 391.201 155.604 392.353 156.136 393.088C154.565 394.329 153.121 394.95 151.804 394.95C148.941 394.95 147.51 393.379 147.51 390.238ZM168.079 380.282C167.902 379.573 167.813 378.914 167.813 378.306C167.813 377.065 168.181 376.127 168.915 375.494C169.65 374.861 170.6 374.544 171.765 374.544C171.765 373.227 171.423 371.795 170.739 370.25C171.981 369.338 173.108 368.654 174.121 368.198C175.16 367.717 176.249 367.476 177.389 367.476C178.529 367.476 179.315 367.691 179.745 368.122C180.201 368.527 180.429 369.161 180.429 370.022C180.429 370.883 180.252 372.226 179.897 374.05C180.911 373.898 181.937 373.683 182.975 373.404C183.153 373.936 183.241 374.62 183.241 375.456C183.241 376.292 182.912 377.077 182.253 377.812C181.62 378.521 180.683 378.876 179.441 378.876H178.871C177.959 383.005 177.503 386.185 177.503 388.414C177.503 390.643 177.896 392.201 178.681 393.088C177.263 394.329 175.755 394.95 174.159 394.95C172.563 394.95 171.411 394.481 170.701 393.544C170.017 392.581 169.675 391.099 169.675 389.098C169.675 387.882 170.119 384.69 171.005 379.522C169.992 379.699 169.017 379.953 168.079 380.282ZM184.745 382.334C184.745 380.561 185.125 378.762 185.885 376.938C186.645 375.089 187.722 373.379 189.115 371.808C190.509 370.237 192.32 368.958 194.549 367.97C196.804 366.957 199.122 366.45 201.503 366.45C203.91 366.45 205.785 366.893 207.127 367.78C208.495 368.667 209.179 369.895 209.179 371.466C209.179 373.037 208.66 374.265 207.621 375.152C206.608 376.013 205.443 376.444 204.125 376.444C202.808 376.444 201.617 376.165 200.553 375.608C199.515 375.025 198.679 374.202 198.045 373.138C196.677 373.797 195.499 375.089 194.511 377.014C193.523 378.939 193.029 380.877 193.029 382.828C193.029 384.753 193.346 386.286 193.979 387.426C194.613 388.541 195.512 389.098 196.677 389.098C197.843 389.098 198.869 388.503 199.755 387.312C200.667 386.121 201.123 384.69 201.123 383.018C203.682 383.018 205.506 383.221 206.595 383.626C207.71 384.031 208.267 384.905 208.267 386.248C208.267 388.351 207.127 390.327 204.847 392.176C202.567 394.025 199.705 394.95 196.259 394.95C192.814 394.95 190.027 393.886 187.899 391.758C185.797 389.63 184.745 386.489 184.745 382.334ZM229.989 374.088C231.408 374.088 232.624 374.658 233.637 375.798C234.676 376.938 235.195 378.597 235.195 380.776C235.195 382.929 234.815 384.931 234.055 386.78C233.295 388.604 232.294 390.099 231.053 391.264C229.812 392.429 228.406 393.341 226.835 394C225.264 394.633 223.656 394.95 222.009 394.95C218.69 394.95 216.068 394.038 214.143 392.214C212.218 390.39 211.255 387.971 211.255 384.956C211.255 380.877 212.56 377.571 215.169 375.038C217.804 372.479 221.148 371.2 225.201 371.2C226.113 371.2 227.025 371.301 227.937 371.504C228.216 372.34 228.368 373.29 228.393 374.354C228.925 374.177 229.457 374.088 229.989 374.088ZM225.315 379.37C225.315 378.661 225.48 377.863 225.809 376.976C226.164 376.089 226.721 375.38 227.481 374.848C224.137 375.557 221.832 376.913 220.565 378.914C219.476 380.637 218.931 382.41 218.931 384.234C218.931 386.058 219.298 387.527 220.033 388.642C220.793 389.731 221.756 390.276 222.921 390.276C225.505 390.276 227.329 388.591 228.393 385.222C226.341 383.955 225.315 382.005 225.315 379.37ZM252.935 389.326L252.555 389.136C251.871 390.96 250.883 392.391 249.591 393.43C248.324 394.443 246.906 394.95 245.335 394.95C243.182 394.95 241.459 394.139 240.167 392.518C238.875 390.897 238.229 388.731 238.229 386.02C238.229 381.815 239.635 378.293 242.447 375.456C245.284 372.619 248.806 371.2 253.011 371.2C254.1 371.2 255.101 371.301 256.013 371.504C256.165 372.213 256.254 372.834 256.279 373.366C257.546 372.555 258.85 372.15 260.193 372.15C262.042 372.15 262.967 373.151 262.967 375.152C262.967 375.861 262.562 378.002 261.751 381.574C260.966 385.146 260.573 387.793 260.573 389.516C260.573 391.239 260.966 392.429 261.751 393.088C260.332 394.329 258.85 394.95 257.305 394.95C255.785 394.95 254.67 394.494 253.961 393.582C253.277 392.67 252.935 391.251 252.935 389.326ZM245.373 384.158C245.373 385.399 245.626 386.362 246.133 387.046C246.665 387.705 247.412 388.034 248.375 388.034C249.338 388.034 250.288 387.679 251.225 386.97C252.162 386.261 252.948 385.285 253.581 384.044C253.809 381.485 254.303 378.458 255.063 374.962C252.504 374.962 250.25 375.887 248.299 377.736C246.348 379.585 245.373 381.726 245.373 384.158ZM266.399 384.956C266.399 380.903 267.793 377.597 270.579 375.038C273.366 372.479 276.875 371.2 281.105 371.2C283.284 371.2 285.007 371.618 286.273 372.454C287.54 373.265 288.173 374.291 288.173 375.532C288.173 376.773 287.743 377.723 286.881 378.382C286.045 379.041 285.121 379.37 284.107 379.37C283.119 379.37 282.207 379.104 281.371 378.572C280.561 378.04 279.927 377.267 279.471 376.254C277.875 376.913 276.609 378.078 275.671 379.75C274.759 381.422 274.303 383.094 274.303 384.766C274.303 386.438 274.633 387.793 275.291 388.832C275.95 389.871 276.811 390.39 277.875 390.39C278.939 390.39 279.801 390.035 280.459 389.326C281.143 388.617 281.485 387.565 281.485 386.172C285.184 386.172 287.033 387.046 287.033 388.794C287.033 390.289 286.096 391.695 284.221 393.012C282.347 394.304 279.877 394.95 276.811 394.95C273.746 394.95 271.238 394.038 269.287 392.214C267.362 390.365 266.399 387.945 266.399 384.956ZM311.988 371.2C315.053 371.2 316.586 372.733 316.586 375.798C316.586 377.115 316.206 379.345 315.446 382.486C314.711 385.627 314.344 387.996 314.344 389.592C314.344 391.188 314.61 392.353 315.142 393.088C313.799 394.329 312.381 394.95 310.886 394.95C307.973 394.95 306.516 393.379 306.516 390.238C306.516 389.073 306.896 387.097 307.656 384.31C308.416 381.523 308.796 379.712 308.796 378.876C308.796 377.736 308.365 377.166 307.504 377.166C306.795 377.166 305.984 377.483 305.072 378.116C304.16 378.724 303.273 379.56 302.412 380.624C301.576 381.663 300.867 382.993 300.284 384.614C299.701 386.21 299.41 387.844 299.41 389.516C299.41 391.163 299.676 392.353 300.208 393.088C298.865 394.329 297.447 394.95 295.952 394.95C293.039 394.95 291.582 393.379 291.582 390.238C291.582 388.363 292.089 384.563 293.102 378.838C293.963 373.797 294.457 370.972 294.584 370.364L292.456 367.324C295.623 365.475 298.118 364.55 299.942 364.55C300.981 364.55 301.715 364.765 302.146 365.196C302.577 365.601 302.792 366.285 302.792 367.248C302.792 369.072 302.615 371.061 302.26 373.214C301.905 375.367 301.576 376.951 301.272 377.964L301.652 378.154C304.363 373.518 307.808 371.2 311.988 371.2Z" fill="white"/>
</g>
<g filter="url(#filter1_d_80_38)">
<path d="M290.579 195C285.257 202.869 279.579 210.509 273.564 217.877C266.123 227.005 258.173 235.727 249.739 244.007C240.276 253.3 230.235 262.003 219.685 270.07C209.825 277.613 199.52 284.6 188.817 290.995C180.745 286.173 172.895 281.01 165.295 275.528C152.038 265.968 139.531 255.431 127.898 244.007C119.782 236.038 112.109 227.656 104.907 218.903C98.7535 211.424 92.9519 203.668 87.5105 195.669C86.6985 197.273 85.8502 198.841 84.9636 200.346C84.062 201.883 83.0091 203.369 81.8305 204.777C81.2742 205.442 80.6689 206.132 80.0422 206.812C79.7076 207.175 79.3581 207.544 79 207.915C85.9099 217.717 93.3633 227.166 101.339 236.211C116.808 253.761 134.224 269.807 153.395 284.008C164.615 292.325 176.435 300.011 188.817 307C204.977 297.878 220.19 287.57 234.353 276.214C249.833 263.81 264.069 250.168 276.94 235.475C284.434 226.932 291.457 218.025 298 208.809C297.484 208.027 296.973 207.235 296.472 206.414C294.379 202.986 292.403 199.158 290.579 195Z" fill="white"/>
</g>
<g filter="url(#filter2_d_80_38)">
<path d="M96.2602 171.724C97.1707 176.083 98.9955 181.634 102.653 186.661C102.511 191.641 103.118 199.018 106.792 205.943C106.806 206.437 106.826 206.916 106.852 207.38C109.326 210.766 111.859 214.09 114.441 217.329C121.031 225.596 128.139 233.606 135.564 241.134C146.203 251.911 157.761 261.962 169.92 271.014C175.916 275.478 182.145 279.757 188.476 283.772C192.201 281.41 195.883 278.953 199.517 276.422C195.096 264.55 189.253 247.69 186.517 234.803C184.054 223.2 187.096 222.49 187.575 205.943C191.249 199.018 191.856 191.641 191.714 186.661C196.169 180.543 197.901 173.646 198.58 169.073C200.597 182.138 204.478 193.263 209.533 202.124C210.232 203.351 211.035 204.514 211.921 205.608C215.862 210.478 223.289 217.754 232.633 218.095C232.633 218.095 227.484 219.316 220.816 216.585C223.882 219.393 227.115 221.614 230.433 223.204C232.603 224.482 234.757 225.324 236.391 225.086C255.108 222.311 282.107 174.033 286.645 148.827C284.1 154.035 280.368 156.111 280.138 156.234C286.795 150.016 286.426 139.074 286.044 135.134C285.226 132.026 279.02 119.375 275.415 118.113C274.073 117.639 272.663 117.401 271.248 117.407L263.747 117.426C262.242 117.426 261.038 118.677 261.074 120.193L261.146 123.277C259.109 122.491 256.809 123.619 256.232 125.742C256.158 126.004 256.112 126.272 256.08 126.534C255.861 128.499 256.637 130.565 258.294 131.619C263.268 134.779 262.533 138.312 265.658 141.382C268.435 144.119 271.29 144.329 271.29 144.329C271.442 155.283 254.481 169.513 247.124 177.951C246.032 189.714 239.375 195.541 239.168 195.722C242.446 190.917 243.62 185.29 243.736 179.955C242.045 166.395 232.863 158.578 232.863 158.578C232.619 158.246 232.439 157.871 232.32 157.458C228.852 162.101 225.29 163.96 225.29 163.96C228.864 160.638 231.108 156.422 232.497 152.088C233.789 144.972 237.257 133.733 229.554 119.993C225.004 111.883 219.21 107.723 214.626 105.59C221.916 112.546 220.842 120.062 220.842 120.062C219.542 109.573 206.956 103.373 206.956 103.373C185.793 95.9845 178.04 102.011 174.023 100.394C172.715 99.8784 163.182 97.0648 162.663 91.4092C161.088 74.2652 174.959 61.1785 176.591 44.752C178.559 24.9113 156.042 14.5475 144.251 12.3002C134.839 10.5044 119.352 16.7323 116.184 5C103.528 19.7052 109.044 28.1502 109.048 28.1522C108.371 30.8571 104.576 39.4774 104.873 42.4523C105.049 44.1857 106.634 48.9 106.634 48.9C106.634 48.9 98.3247 58.4051 99.8879 61.6562C100.375 62.6599 104.25 62.4342 104.25 62.4342C104.25 62.4342 102.837 68.3598 103.725 69.2869C103.943 69.5127 104.883 69.3051 103.785 70.1657C101.964 71.5947 104.073 78.0423 102.25 83.5124C100.401 89.0491 107.501 92.7657 114.662 91.2097C119.634 90.1314 124.922 88.1139 124.922 88.1139C124.922 88.1139 130.151 93.6888 121.622 98.4152C117.605 100.032 109.853 94.0092 88.6894 101.394C88.6894 101.394 76.1033 107.594 74.8036 118.085C74.8036 118.085 73.7334 110.571 81.0188 103.611C76.4367 105.744 70.6448 109.902 66.0947 118.014C62.7405 124 61.5027 129.507 61.2791 134.41C60.9976 140.763 62.4191 146.092 63.1478 150.111C64.5354 154.442 66.7835 158.659 70.3573 161.981C70.3573 161.981 66.7955 160.122 63.3315 155.476C63.2057 155.894 63.03 156.269 62.7845 156.599C62.7845 156.599 60.6462 158.421 58.2404 161.831C55.6668 165.483 52.7878 170.964 51.9114 177.978C52.0252 183.315 53.1991 188.936 56.4834 193.741C56.2738 193.562 49.6114 187.735 48.5213 175.97C41.1681 167.537 24.2016 153.304 24.3593 142.351C24.3593 142.351 27.2123 142.138 29.9915 139.405C33.1121 136.331 32.3793 132.802 37.3527 129.644C39.0078 128.587 39.7845 126.52 39.5668 124.558C39.5349 124.292 39.487 124.026 39.4151 123.76C38.8381 121.64 36.5381 120.513 34.4997 121.295L34.5755 118.212C34.6135 116.698 33.4036 115.45 31.9042 115.444L24.4032 115.426C22.9817 115.424 21.5721 115.664 20.2325 116.132C16.6287 117.397 10.4175 130.049 9.60095 133.159C9.22161 137.097 8.85425 148.041 15.5087 154.259C15.2771 154.136 11.5456 152.058 9 146.848C13.5381 172.056 40.5372 220.332 59.2546 223.105C60.8918 223.349 63.042 222.502 65.2142 221.225C68.5345 219.632 71.7648 217.413 74.8295 214.61C68.1611 217.341 63.0121 216.117 63.0121 216.117C71.2917 215.813 78.0579 210.073 82.2326 205.387C82.7757 204.78 83.2728 204.191 83.724 203.633C84.6145 202.539 85.4171 201.374 86.1159 200.146C87.4376 197.831 88.6754 195.364 89.8175 192.745C92.5387 186.546 94.7389 179.511 96.2602 171.724Z" fill="#0E98E6"/>
</g>
<g filter="url(#filter3_d_80_38)">
<path d="M345.873 153.947C345.175 151.308 339.884 140.56 336.805 139.484C335.663 139.085 334.461 138.885 333.25 138.885L326.854 138.901C325.571 138.903 324.543 139.966 324.573 141.251L324.637 143.872C322.901 143.204 320.939 144.162 320.448 145.962C320.385 146.19 320.345 146.419 320.318 146.641C320.132 148.308 320.794 150.067 322.204 150.962C326.45 153.647 325.824 156.645 328.485 159.255C330.852 161.576 333.288 161.76 333.288 161.76C336.013 179.498 313.579 190.005 306.079 205.045C305.044 208.083 303.878 209.933 303.878 209.933C307.769 197.742 301.288 186.936 300.625 179.076C298.227 185.967 293.67 190.061 293.67 190.061C298.955 180.619 299.695 172.528 299.695 172.528C299.659 167.894 299.367 163.897 298.886 160.431C296.765 145.156 291.029 140.199 287.825 136.633C280.261 128.207 265.01 133.255 250.333 124.432C241.925 119.159 239.668 107.353 239.668 107.353C245.401 117.038 252.659 117.262 255.108 117.177C264.494 116.844 257.37 110.846 259.613 104.044C260.317 101.914 260.762 100.569 260.226 99.6897C258.621 100.383 256.861 99.9009 256.861 99.9009C259.256 99.5295 260.145 98.7122 260.145 98.7122C261.652 98.188 260.261 93.7575 260.261 93.7575C260.261 93.7575 262.559 92.5835 262.974 91.728C264.308 88.9667 259.305 87.789 258.228 82.2591C257.956 80.8648 259.464 78.2345 259.73 76.7802C259.81 76.3542 259.875 75.9338 259.933 75.5169C262.076 76.2669 262.914 77.0041 262.914 77.0041C266.616 69.2007 264.062 62.757 263.135 60.4872C256.956 45.4484 237.527 49.3746 230.993 51.1821C224.81 39.2541 198.809 34.3904 185.428 79.5906C177.707 105.66 166.903 112.517 158.128 110.926C162.955 113.662 170.079 113.919 179.392 104.233C179.392 104.233 165.406 128.915 145.19 106.425C147.438 115.644 154.177 128.397 174.376 123.154C192.154 118.538 200.377 101.08 204.223 83.1747C203.282 94.7496 213.308 103.556 212.578 114.068C215.094 109.843 214.891 103.232 214.866 102.557C214.922 103.463 215.642 115.169 215.337 118.482C215.058 121.487 211.769 123.548 209.072 124.78C194.585 133.118 179.634 128.315 172.172 136.633C168.356 140.885 160.941 147.107 160.338 170.424C160.59 172.305 161.784 179.387 166.306 187.464C166.306 187.464 162.181 183.763 159.715 177.47C159.111 180.545 158.124 184.031 157.147 187.709C155.138 195.26 154.897 203.196 156.593 210.823C156.655 211.101 156.722 211.385 156.789 211.669C156.789 211.669 155.225 209.199 154.115 205.267C154.113 205.32 154.112 205.371 154.112 205.426C146.801 190.181 123.963 179.647 126.712 161.76C126.712 161.76 129.146 161.576 131.516 159.255C134.178 156.645 133.55 153.647 137.795 150.962C139.204 150.067 139.869 148.308 139.681 146.641C139.657 146.419 139.614 146.19 139.554 145.962C139.06 144.162 137.101 143.204 135.362 143.872L135.423 141.251C135.458 139.966 134.428 138.903 133.146 138.901L126.75 138.885C125.537 138.885 124.335 139.085 123.193 139.484C120.12 140.56 114.824 151.308 114.127 153.947C111.859 190.241 140.51 228.009 156.472 230.365C157.869 230.572 159.703 229.855 161.554 228.77C176.136 221.032 183.948 198.554 187.479 182.933C188.255 186.635 187.24 192.913 196.529 203.416C196.409 207.65 203.065 228.244 197.919 240.307C190.731 257.146 185.175 269.91 183.229 280.915C184.813 281.96 186.402 282.988 188 284C195.897 279.016 203.601 273.579 210.94 267.807C219.699 260.921 228.121 253.415 235.974 245.491C242.959 238.439 249.634 230.911 255.813 223.118C257.632 220.829 259.421 218.495 261.18 216.125C262.221 210.169 263.522 205.245 263.468 203.416C272.762 192.913 271.741 186.635 272.518 182.933C273.761 188.425 275.528 194.757 277.933 201.002C279.622 205.387 281.629 209.732 283.99 213.704C287.818 220.173 292.584 225.661 298.442 228.77C300.296 229.855 302.131 230.572 303.527 230.365C319.489 228.009 348.138 190.241 345.873 153.947Z" fill="#1C233E"/>
</g>
<defs>
<filter id="filter0_d_80_38" x="60.33" y="362.55" width="260.256" height="45.012" filterUnits="userSpaceOnUse" color-interpolation-filters="sRGB">
<feFlood flood-opacity="0" result="BackgroundImageFix"/>
<feColorMatrix in="SourceAlpha" type="matrix" values="0 0 0 0 0 0 0 0 0 0 0 0 0 0 0 0 0 0 127 0" result="hardAlpha"/>
<feOffset dy="2"/>
<feGaussianBlur stdDeviation="2"/>
<feComposite in2="hardAlpha" operator="out"/>
<feColorMatrix type="matrix" values="0 0 0 0 0 0 0 0 0 0 0 0 0 0 0 0 0 0 0.25 0"/>
<feBlend mode="normal" in2="BackgroundImageFix" result="effect1_dropShadow_80_38"/>
<feBlend mode="normal" in="SourceGraphic" in2="effect1_dropShadow_80_38" result="shape"/>
</filter>
<filter id="filter1_d_80_38" x="70" y="190" width="237" height="130" filterUnits="userSpaceOnUse" color-interpolation-filters="sRGB">
<feFlood flood-opacity="0" result="BackgroundImageFix"/>
<feColorMatrix in="SourceAlpha" type="matrix" values="0 0 0 0 0 0 0 0 0 0 0 0 0 0 0 0 0 0 127 0" result="hardAlpha"/>
<feOffset dy="4"/>
<feGaussianBlur stdDeviation="4.5"/>
<feComposite in2="hardAlpha" operator="out"/>
<feColorMatrix type="matrix" values="0 0 0 0 0 0 0 0 0 0 0 0 0 0 0 0 0 0 0.25 0"/>
<feBlend mode="normal" in2="BackgroundImageFix" result="effect1_dropShadow_80_38"/>
<feBlend mode="normal" in="SourceGraphic" in2="effect1_dropShadow_80_38" result="shape"/>
</filter>
<filter id="filter2_d_80_38" x="0" y="0" width="295.645" height="296.772" filterUnits="userSpaceOnUse" color-interpolation-filters="sRGB">
<feFlood flood-opacity="0" result="BackgroundImageFix"/>
<feColorMatrix in="SourceAlpha" type="matrix" values="0 0 0 0 0 0 0 0 0 0 0 0 0 0 0 0 0 0 127 0" result="hardAlpha"/>
<feOffset dy="4"/>
<feGaussianBlur stdDeviation="4.5"/>
<feComposite in2="hardAlpha" operator="out"/>
<feColorMatrix type="matrix" values="0 0 0 0 0 0 0 0 0 0 0 0 0 0 0 0 0 0 0.25 0"/>
<feBlend mode="normal" in2="BackgroundImageFix" result="effect1_dropShadow_80_38"/>
<feBlend mode="normal" in="SourceGraphic" in2="effect1_dropShadow_80_38" result="shape"/>
</filter>
<filter id="filter3_d_80_38" x="105" y="38" width="250" height="259" filterUnits="userSpaceOnUse" color-interpolation-filters="sRGB">
<feFlood flood-opacity="0" result="BackgroundImageFix"/>
<feColorMatrix in="SourceAlpha" type="matrix" values="0 0 0 0 0 0 0 0 0 0 0 0 0 0 0 0 0 0 127 0" result="hardAlpha"/>
<feOffset dy="4"/>
<feGaussianBlur stdDeviation="4.5"/>
<feComposite in2="hardAlpha" operator="out"/>
<feColorMatrix type="matrix" values="0 0 0 0 0 0 0 0 0 0 0 0 0 0 0 0 0 0 0.25 0"/>
<feBlend mode="normal" in2="BackgroundImageFix" result="effect1_dropShadow_80_38"/>
<feBlend mode="normal" in="SourceGraphic" in2="effect1_dropShadow_80_38" result="shape"/>
</filter>
</defs>
</svg>
