<svg width="355" height="320" viewBox="0 0 355 320" fill="none" xmlns="http://www.w3.org/2000/svg">
<g filter="url(#filter0_d_9_2)">
<path d="M290.579 195C285.257 202.869 279.579 210.509 273.564 217.877C266.123 227.005 258.173 235.727 249.74 244.007C240.276 253.3 230.235 262.003 219.685 270.07C209.825 277.613 199.52 284.6 188.817 290.995C180.745 286.173 172.895 281.01 165.295 275.528C152.038 265.968 139.531 255.431 127.898 244.007C119.782 236.038 112.109 227.656 104.907 218.903C98.754 211.424 92.952 203.668 87.511 195.669C86.699 197.273 85.85 198.841 84.964 200.346C84.062 201.883 83.009 203.369 81.831 204.777C81.274 205.442 80.669 206.132 80.042 206.812C79.708 207.175 79.358 207.544 79 207.915C85.91 217.717 93.363 227.166 101.339 236.211C116.808 253.761 134.224 269.807 153.395 284.008C164.615 292.325 176.435 300.011 188.817 307C204.977 297.878 220.19 287.57 234.353 276.214C249.833 263.81 264.069 250.168 276.94 235.475C284.434 226.932 291.457 218.025 298 208.809C297.484 208.027 296.973 207.235 296.472 206.414C294.379 202.986 292.403 199.158 290.579 195Z" fill="white"/>
</g>
<g filter="url(#filter1_d_9_2)">
<path d="M96.26 171.724C97.171 176.083 98.996 181.634 102.653 186.661C102.511 191.641 103.118 199.018 106.792 205.943C106.806 206.437 106.826 206.916 106.852 207.38C109.326 210.766 111.859 214.09 114.441 217.329C121.031 225.596 128.139 233.606 135.564 241.134C146.203 251.911 157.761 261.962 169.92 271.014C175.916 275.478 182.145 279.757 188.476 283.772C192.201 281.41 195.883 278.953 199.517 276.422C195.096 264.55 189.253 247.69 186.517 234.803C184.054 223.2 187.096 222.49 187.576 205.943C191.249 199.018 191.856 191.641 191.714 186.661C196.169 180.543 197.902 173.646 198.58 169.073C200.597 182.138 204.478 193.263 209.533 202.124C210.232 203.351 211.035 204.514 211.921 205.608C215.862 210.478 223.289 217.754 232.633 218.095C232.633 218.095 227.484 219.316 220.816 216.585C223.882 219.393 227.115 221.614 230.433 223.204C232.603 224.482 234.757 225.324 236.391 225.086C255.108 222.311 282.107 174.033 286.645 148.827C284.1 154.035 280.368 156.111 280.139 156.234C286.795 150.016 286.426 139.074 286.044 135.134C285.226 132.026 279.02 119.375 275.415 118.113C274.073 117.639 272.664 117.401 271.248 117.407L263.747 117.426C262.242 117.426 261.038 118.677 261.074 120.193L261.146 123.277C259.109 122.491 256.809 123.619 256.232 125.742C256.158 126.004 256.112 126.272 256.08 126.534C255.861 128.499 256.637 130.565 258.295 131.619C263.268 134.779 262.533 138.312 265.658 141.382C268.435 144.119 271.29 144.329 271.29 144.329C271.442 155.283 254.481 169.513 247.124 177.951C246.032 189.714 239.375 195.541 239.168 195.722C242.446 190.917 243.62 185.29 243.736 179.955C242.045 166.395 232.863 158.578 232.863 158.578C232.619 158.246 232.439 157.871 232.32 157.458C228.852 162.101 225.29 163.96 225.29 163.96C228.864 160.638 231.108 156.422 232.497 152.088C233.789 144.972 237.257 133.733 229.555 119.993C225.004 111.883 219.21 107.723 214.626 105.59C221.916 112.546 220.842 120.062 220.842 120.062C219.542 109.573 206.956 103.373 206.956 103.373C185.793 95.984 178.04 102.011 174.023 100.394C172.715 99.878 163.182 97.065 162.663 91.409C161.088 74.265 174.959 61.178 176.591 44.752C178.559 24.911 156.042 14.548 144.251 12.3C134.839 10.5044 119.352 16.732 116.184 5C103.528 19.705 109.044 28.15 109.048 28.152C108.371 30.857 104.576 39.477 104.873 42.452C105.049 44.186 106.634 48.9 106.634 48.9C106.634 48.9 98.325 58.405 99.888 61.656C100.375 62.66 104.25 62.434 104.25 62.434C104.25 62.434 102.837 68.36 103.725 69.287C103.943 69.513 104.883 69.305 103.785 70.166C101.964 71.595 104.073 78.042 102.25 83.512C100.401 89.049 107.501 92.766 114.662 91.21C119.634 90.131 124.922 88.114 124.922 88.114C124.922 88.114 130.151 93.689 121.622 98.415C117.605 100.032 109.853 94.009 88.689 101.394C88.689 101.394 76.103 107.594 74.804 118.085C74.804 118.085 73.733 110.571 81.019 103.611C76.437 105.744 70.645 109.902 66.0948 118.014C62.7406 124 61.5028 129.507 61.2791 134.41C60.9976 140.763 62.4192 146.092 63.1479 150.111C64.5355 154.442 66.7836 158.659 70.357 161.981C70.357 161.981 66.7956 160.122 63.3316 155.476C63.2058 155.894 63.0301 156.269 62.7845 156.599C62.7845 156.599 60.6462 158.421 58.2404 161.831C55.6669 165.483 52.7879 170.964 51.9114 177.978C52.0252 183.315 53.1992 188.936 56.4835 193.741C56.2738 193.562 49.6114 187.735 48.5213 175.97C41.1681 167.537 24.2016 153.304 24.3594 142.351C24.3594 142.351 27.2124 142.138 29.9916 139.405C33.1121 136.331 32.3794 132.802 37.3528 129.644C39.0079 128.587 39.7845 126.52 39.5669 124.558C39.535 124.292 39.487 124.026 39.4152 123.76C38.8382 121.64 36.5382 120.513 34.4997 121.295L34.5756 118.212C34.6135 116.698 33.4036 115.45 31.9042 115.444L24.4033 115.426C22.9817 115.424 21.5722 115.664 20.2325 116.132C16.6288 117.397 10.4176 130.049 9.60102 133.159C9.22172 137.097 8.85432 148.041 15.5087 154.259C15.2771 154.136 11.5456 152.058 9.00012 146.848C13.5382 172.056 40.5372 220.332 59.2547 223.105C60.8918 223.349 63.0421 222.502 65.2143 221.225C68.5345 219.632 71.765 217.413 74.83 214.61C68.1612 217.341 63.0121 216.117 63.0121 216.117C71.292 215.813 78.058 210.073 82.233 205.387C82.776 204.78 83.273 204.191 83.724 203.633C84.615 202.539 85.417 201.374 86.116 200.146C87.438 197.831 88.675 195.364 89.818 192.745C92.539 186.546 94.739 179.511 96.26 171.724Z" fill="white"/>
</g>
<g filter="url(#filter2_d_9_2)">
<path d="M345.873 153.947C345.175 151.308 339.884 140.56 336.805 139.484C335.663 139.085 334.461 138.885 333.25 138.885L326.854 138.901C325.571 138.903 324.543 139.966 324.573 141.251L324.637 143.872C322.901 143.204 320.939 144.162 320.448 145.962C320.385 146.19 320.345 146.419 320.318 146.641C320.132 148.308 320.794 150.067 322.204 150.962C326.45 153.647 325.824 156.645 328.485 159.255C330.852 161.576 333.288 161.76 333.288 161.76C336.013 179.498 313.579 190.005 306.079 205.045C305.044 208.083 303.878 209.933 303.878 209.933C307.769 197.742 301.288 186.936 300.625 179.076C298.227 185.967 293.67 190.061 293.67 190.061C298.955 180.619 299.695 172.528 299.695 172.528C299.659 167.894 299.367 163.897 298.886 160.431C296.765 145.156 291.029 140.199 287.825 136.633C280.261 128.207 265.01 133.255 250.333 124.432C241.925 119.159 239.668 107.353 239.668 107.353C245.401 117.038 252.659 117.262 255.108 117.177C264.494 116.844 257.37 110.846 259.613 104.044C260.317 101.914 260.762 100.569 260.226 99.69C258.621 100.383 256.861 99.901 256.861 99.901C259.256 99.53 260.145 98.712 260.145 98.712C261.652 98.188 260.261 93.758 260.261 93.758C260.261 93.758 262.559 92.583 262.974 91.728C264.308 88.967 259.305 87.789 258.228 82.259C257.956 80.865 259.464 78.235 259.73 76.78C259.81 76.354 259.875 75.934 259.933 75.517C262.076 76.267 262.914 77.004 262.914 77.004C266.616 69.201 264.062 62.757 263.135 60.487C256.956 45.448 237.527 49.375 230.993 51.182C224.81 39.254 198.809 34.39 185.428 79.591C177.707 105.66 166.903 112.517 158.128 110.926C162.955 113.662 170.079 113.919 179.392 104.233C179.392 104.233 165.406 128.915 145.19 106.425C147.438 115.644 154.177 128.397 174.376 123.154C192.154 118.538 200.377 101.08 204.223 83.175C203.282 94.75 213.308 103.556 212.578 114.068C215.094 109.843 214.891 103.232 214.866 102.557C214.922 103.463 215.642 115.169 215.337 118.482C215.058 121.487 211.769 123.548 209.072 124.78C194.585 133.118 179.634 128.315 172.172 136.633C168.356 140.885 160.941 147.107 160.338 170.424C160.59 172.305 161.784 179.387 166.306 187.464C166.306 187.464 162.181 183.763 159.715 177.47C159.111 180.545 158.124 184.031 157.147 187.709C155.138 195.26 154.897 203.196 156.593 210.823C156.655 211.101 156.722 211.385 156.789 211.669C156.789 211.669 155.225 209.199 154.115 205.267C154.113 205.32 154.112 205.371 154.112 205.426C146.801 190.181 123.963 179.647 126.712 161.76C126.712 161.76 129.146 161.576 131.516 159.255C134.178 156.645 133.55 153.647 137.795 150.962C139.204 150.067 139.869 148.308 139.681 146.641C139.657 146.419 139.614 146.19 139.554 145.962C139.06 144.162 137.101 143.204 135.362 143.872L135.423 141.251C135.458 139.966 134.428 138.903 133.146 138.901L126.75 138.885C125.537 138.885 124.335 139.085 123.193 139.484C120.12 140.56 114.824 151.308 114.127 153.947C111.859 190.241 140.51 228.009 156.472 230.365C157.869 230.572 159.703 229.855 161.554 228.77C176.136 221.032 183.948 198.554 187.479 182.933C188.255 186.635 187.24 192.913 196.529 203.416C196.409 207.65 203.065 228.244 197.919 240.307C190.731 257.146 185.175 269.91 183.229 280.915C184.813 281.96 186.402 282.988 188 284C195.897 279.016 203.601 273.579 210.94 267.807C219.699 260.921 228.121 253.415 235.974 245.491C242.959 238.439 249.634 230.911 255.813 223.118C257.632 220.829 259.421 218.495 261.18 216.125C262.221 210.169 263.522 205.245 263.468 203.416C272.762 192.913 271.741 186.635 272.518 182.933C273.761 188.425 275.528 194.757 277.933 201.002C279.622 205.387 281.629 209.732 283.99 213.704C287.818 220.173 292.584 225.661 298.442 228.77C300.296 229.855 302.131 230.572 303.527 230.365C319.489 228.009 348.138 190.241 345.873 153.947Z" fill="#1C233E"/>
</g>
<defs>
<filter id="filter0_d_9_2" x="70" y="190" width="237" height="130" filterUnits="userSpaceOnUse" color-interpolation-filters="sRGB">
<feFlood flood-opacity="0" result="BackgroundImageFix"/>
<feColorMatrix in="SourceAlpha" type="matrix" values="0 0 0 0 0 0 0 0 0 0 0 0 0 0 0 0 0 0 127 0" result="hardAlpha"/>
<feOffset dy="4"/>
<feGaussianBlur stdDeviation="4.5"/>
<feComposite in2="hardAlpha" operator="out"/>
<feColorMatrix type="matrix" values="0 0 0 0 0 0 0 0 0 0 0 0 0 0 0 0 0 0 0.25 0"/>
<feBlend mode="normal" in2="BackgroundImageFix" result="effect1_dropShadow_9_2"/>
<feBlend mode="normal" in="SourceGraphic" in2="effect1_dropShadow_9_2" result="shape"/>
</filter>
<filter id="filter1_d_9_2" x="0.00012207" y="0" width="295.645" height="296.772" filterUnits="userSpaceOnUse" color-interpolation-filters="sRGB">
<feFlood flood-opacity="0" result="BackgroundImageFix"/>
<feColorMatrix in="SourceAlpha" type="matrix" values="0 0 0 0 0 0 0 0 0 0 0 0 0 0 0 0 0 0 127 0" result="hardAlpha"/>
<feOffset dy="4"/>
<feGaussianBlur stdDeviation="4.5"/>
<feComposite in2="hardAlpha" operator="out"/>
<feColorMatrix type="matrix" values="0 0 0 0 0 0 0 0 0 0 0 0 0 0 0 0 0 0 0.25 0"/>
<feBlend mode="normal" in2="BackgroundImageFix" result="effect1_dropShadow_9_2"/>
<feBlend mode="normal" in="SourceGraphic" in2="effect1_dropShadow_9_2" result="shape"/>
</filter>
<filter id="filter2_d_9_2" x="105" y="37.9998" width="250" height="259" filterUnits="userSpaceOnUse" color-interpolation-filters="sRGB">
<feFlood flood-opacity="0" result="BackgroundImageFix"/>
<feColorMatrix in="SourceAlpha" type="matrix" values="0 0 0 0 0 0 0 0 0 0 0 0 0 0 0 0 0 0 127 0" result="hardAlpha"/>
<feOffset dy="4"/>
<feGaussianBlur stdDeviation="4.5"/>
<feComposite in2="hardAlpha" operator="out"/>
<feColorMatrix type="matrix" values="0 0 0 0 0 0 0 0 0 0 0 0 0 0 0 0 0 0 0.25 0"/>
<feBlend mode="normal" in2="BackgroundImageFix" result="effect1_dropShadow_9_2"/>
<feBlend mode="normal" in="SourceGraphic" in2="effect1_dropShadow_9_2" result="shape"/>
</filter>
</defs>
</svg>
